<?xml version="1.0" encoding="iso-8859-1"?>
<!-- Generator: Adobe Illustrator 16.0.0, SVG Export Plug-In . SVG Version: 6.00 Build 0)  -->
<!DOCTYPE svg PUBLIC "-//W3C//DTD SVG 1.1//EN" "http://www.w3.org/Graphics/SVG/1.1/DTD/svg11.dtd">
<svg version="1.1" id="Capa_1" xmlns="http://www.w3.org/2000/svg" xmlns:xlink="http://www.w3.org/1999/xlink" x="0px" y="0px"
	 width="162.117px" height="162.117px" viewBox="0 0 162.117 162.117" style="enable-background:new 0 0 162.117 162.117;"
	 xml:space="preserve">
<g>
	<g>
		<path d="M137.177,0H24.941c-5.158,0-9.353,4.195-9.353,9.353v143.412c0,5.157,4.195,9.353,9.353,9.353h112.236
			c5.157,0,9.353-4.195,9.353-9.353V9.353C146.529,4.195,142.334,0,137.177,0z M133.322,6.646c2.466,0,4.476,2.003,4.476,4.479
			S135.8,15.6,133.322,15.6c-2.479,0-4.476-2-4.476-4.476S130.855,6.646,133.322,6.646z M118.275,6.646
			c2.473,0,4.481,2.003,4.481,4.479s-2.003,4.476-4.481,4.476c-2.472,0-4.476-2-4.476-4.476S115.804,6.646,118.275,6.646z
			 M103.224,6.646c2.472,0,4.481,2.003,4.481,4.479s-2.004,4.476-4.481,4.476c-2.473,0-4.476-2-4.476-4.476
			S100.757,6.646,103.224,6.646z M140.294,152.765c0,1.717-1.4,3.117-3.117,3.117H24.941c-1.72,0-3.118-1.4-3.118-3.117V19.129
			h118.471V152.765z"/>
		<path d="M50.007,72.123h11.411c2.469,0,4.481-2.019,4.481-4.488V56.224c0-2.469-2.012-4.49-4.481-4.49H50.007
			c-2.463,0-4.484,2.021-4.484,4.49v11.411C45.516,70.104,47.544,72.123,50.007,72.123z"/>
		<path d="M75.353,72.123h11.412c2.466,0,4.481-2.019,4.481-4.488V56.224c0-2.469-2.016-4.49-4.481-4.49H75.353
			c-2.463,0-4.481,2.021-4.481,4.49v11.411C70.872,70.104,72.89,72.123,75.353,72.123z"/>
		<path d="M100.702,72.123h11.411c2.473,0,4.487-2.019,4.487-4.488V56.224c0-2.469-2.009-4.49-4.487-4.49h-11.411
			c-2.46,0-4.481,2.021-4.481,4.49v11.411C96.221,70.104,98.242,72.123,100.702,72.123z"/>
		<path d="M50.007,97.487h11.411c2.469,0,4.481-2.022,4.481-4.488V81.588c0-2.469-2.012-4.487-4.481-4.487H50.007
			c-2.463,0-4.484,2.019-4.484,4.487v11.411C45.516,95.465,47.544,97.487,50.007,97.487z"/>
		<path d="M75.353,97.487h11.412c2.466,0,4.481-2.022,4.481-4.488V81.588c0-2.469-2.016-4.487-4.481-4.487H75.353
			c-2.463,0-4.481,2.019-4.481,4.487v11.411C70.872,95.465,72.89,97.487,75.353,97.487z"/>
		<path d="M100.702,97.487h11.411c2.473,0,4.487-2.022,4.487-4.488V81.588c0-2.469-2.009-4.487-4.487-4.487h-11.411
			c-2.46,0-4.481,2.019-4.481,4.487v11.411C96.221,95.465,98.242,97.487,100.702,97.487z"/>
		<path d="M50.007,122.854h11.411c2.469,0,4.481-2.028,4.481-4.494v-11.411c0-2.466-2.012-4.481-4.481-4.481H50.007
			c-2.463,0-4.484,2.016-4.484,4.481v11.411C45.516,120.826,47.544,122.854,50.007,122.854z"/>
		<path d="M75.353,122.854h11.412c2.466,0,4.481-2.028,4.481-4.494v-11.411c0-2.466-2.016-4.481-4.481-4.481H75.353
			c-2.463,0-4.481,2.016-4.481,4.481v11.411C70.872,120.826,72.89,122.854,75.353,122.854z"/>
	</g>
</g>
<g>
</g>
<g>
</g>
<g>
</g>
<g>
</g>
<g>
</g>
<g>
</g>
<g>
</g>
<g>
</g>
<g>
</g>
<g>
</g>
<g>
</g>
<g>
</g>
<g>
</g>
<g>
</g>
<g>
</g>
</svg>
