<?xml version="1.0" standalone="no"?>
<!DOCTYPE svg PUBLIC "-//W3C//DTD SVG 20010904//EN"
 "http://www.w3.org/TR/2001/REC-SVG-20010904/DTD/svg10.dtd">
<svg version="1.0" xmlns="http://www.w3.org/2000/svg"
 width="1280.000000pt" height="640.000000pt" viewBox="0 0 1280.000000 640.000000"
 preserveAspectRatio="xMidYMid meet">
<metadata>
Created by potrace 1.15, written by Peter Selinger 2001-2017
</metadata>
<g transform="translate(0.000000,640.000000) scale(0.100000,-0.100000)"
fill="#000000" stroke="none">
<path d="M8130 6085 c-93 -95 -217 -139 -445 -160 -168 -15 -334 -36 -382 -49
-65 -17 -188 -98 -208 -136 -19 -37 -4 -75 36 -89 19 -7 29 -17 29 -30 0 -15
11 -23 40 -32 35 -11 53 -9 142 14 57 14 121 29 143 32 22 4 72 17 110 30 39
13 99 26 135 29 36 4 85 9 110 12 30 4 40 2 31 -4 -8 -6 -11 -18 -6 -31 6 -19
19 -25 54 -23 18 0 -1 -17 -51 -47 l-38 -23 0 29 c0 41 -15 60 -33 44 -21 -17
-30 -60 -16 -77 14 -17 18 -13 -89 -89 -99 -70 -166 -140 -193 -199 -18 -42
-23 -45 -91 -66 -196 -60 -459 -186 -689 -333 -133 -84 -427 -299 -602 -441
-91 -74 -99 -78 -135 -72 -115 18 -120 18 -183 -3 -35 -12 -77 -30 -94 -42
-51 -35 -483 -248 -595 -294 -350 -144 -620 -155 -859 -38 -59 29 -97 58 -166
128 -133 133 -255 206 -403 241 -81 19 -207 14 -269 -11 l-42 -17 -73 36 c-40
20 -111 46 -158 57 -78 20 -102 21 -340 16 -257 -5 -362 -16 -560 -59 -203
-43 -432 -135 -588 -235 -31 -20 -108 -63 -171 -95 -62 -32 -153 -85 -201
-118 -78 -54 -127 -93 -277 -224 l-42 -37 -14 33 c-25 58 -99 119 -180 146
-57 20 -92 -5 -140 -98 -45 -92 -69 -181 -70 -271 -1 -84 19 -119 79 -133 21
-5 41 -10 42 -12 2 -1 -14 -26 -35 -56 -64 -87 -169 -259 -194 -318 -26 -63
-96 -182 -228 -390 -113 -178 -198 -346 -213 -423 -16 -77 2 -132 52 -162 32
-18 51 -20 201 -19 192 1 269 19 359 79 29 19 54 35 57 35 2 0 1 -26 -2 -58
-4 -31 -2 -110 5 -174 39 -402 197 -735 485 -1024 117 -118 227 -203 360 -280
13 -7 -115 -10 -451 -11 l-469 -1 -64 -26 c-71 -30 -111 -54 -111 -67 0 -29
51 -33 500 -34 489 -2 1029 -19 1150 -36 119 -17 2091 -18 2198 -1 93 15 212
49 212 61 0 4 -64 15 -142 24 -320 38 -688 64 -1078 75 l-234 7 79 46 c191
111 388 288 514 462 62 86 74 96 86 78 3 -6 29 -24 59 -40 61 -35 120 -43 436
-61 648 -35 2567 -49 3100 -22 424 21 649 47 721 83 33 16 40 28 69 106 144
400 471 1783 589 2499 51 306 72 485 73 632 l1 92 26 0 c30 0 61 -41 61 -82 1
-34 35 -105 58 -117 29 -16 34 -14 27 9 -3 11 -4 20 -2 20 3 0 44 -53 92 -117
123 -165 292 -383 478 -621 l159 -202 -30 -38 c-68 -86 -166 -249 -231 -383
-127 -262 -196 -500 -236 -818 -9 -75 -24 -139 -41 -181 -19 -44 -28 -89 -31
-140 -5 -88 10 -126 69 -173 31 -25 48 -31 90 -31 29 -1 67 3 83 7 l31 8 13
-75 c29 -177 92 -281 382 -640 107 -131 210 -289 197 -300 -1 -2 -169 -16
-372 -30 -420 -31 -572 -47 -771 -81 -198 -34 -266 -51 -287 -73 -19 -19 -19
-19 12 -46 28 -23 40 -26 103 -26 94 0 409 17 567 31 111 9 141 8 265 -10 236
-35 515 -44 880 -29 209 8 565 12 1024 10 899 -4 1303 13 1389 57 l34 17 -26
31 c-25 30 -27 30 -148 37 -195 11 -367 27 -444 41 -97 18 -154 34 -154 43 0
4 31 27 67 52 139 93 314 281 426 457 120 187 212 437 252 680 33 201 29 465
-11 648 -8 39 -26 123 -40 188 -40 192 -90 309 -195 462 -59 85 -183 211 -266
269 l-62 43 78 15 c44 9 106 28 140 43 164 74 176 196 32 327 -73 66 -185 131
-302 175 -142 53 -195 64 -359 73 -85 5 -211 14 -280 20 -166 16 -599 7 -735
-15 -289 -46 -531 -135 -716 -261 l-75 -52 -175 222 c-96 121 -286 361 -422
533 -136 172 -247 314 -247 317 0 3 19 -4 43 -14 63 -28 171 -42 260 -35 77 7
78 8 103 46 75 119 73 282 -7 718 -17 91 -33 225 -37 296 l-7 130 -85 3 c-252
9 -460 -136 -531 -370 -12 -37 -23 -68 -25 -68 -2 0 -18 29 -36 65 -45 92
-145 221 -257 334 -115 116 -347 311 -370 311 -9 0 -37 -20 -61 -45z m-100
-379 c0 -2 -16 -13 -35 -25 -22 -13 -37 -16 -41 -10 -3 6 -20 17 -38 25 -30
13 -28 13 42 14 39 0 72 -2 72 -4z m197 -458 c23 -11 59 -35 80 -54 l38 -35
-40 25 c-22 14 -69 37 -105 52 -36 14 -69 30 -75 36 -15 15 52 -1 102 -24z
m365 -1067 c-3 -50 0 -63 18 -81 l21 -21 -23 -102 -23 -102 -8 60 c-12 90 -1
305 16 305 1 0 0 -27 -1 -59z m-392 -1895 c0 -8 -12 -28 -26 -43 l-25 -28 23
42 c25 47 28 50 28 29z m-4050 -363 c24 -82 45 -153 47 -159 3 -7 -42 -13
-138 -18 -78 -3 -142 -5 -143 -4 -1 2 1 66 4 143 l5 139 70 23 c115 36 106 44
155 -124z m3926 -114 c-89 -324 -122 -389 -231 -450 -29 -16 -70 -49 -92 -73
-36 -40 -46 -45 -109 -55 -220 -35 -934 -48 -1784 -32 -1005 19 -1753 50
-1870 77 -90 20 -190 54 -190 64 0 5 9 29 19 53 18 42 23 46 63 51 121 15 383
30 543 30 262 0 409 -32 580 -124 94 -51 219 -94 338 -115 142 -25 457 -16
692 20 391 60 446 65 740 65 327 0 465 10 598 44 176 45 311 138 397 273 108
170 142 214 115 149 -8 -19 -18 -61 -21 -93 l-7 -58 23 20 c35 31 151 183 195
257 22 37 41 65 43 63 2 -1 -17 -76 -42 -166z"/>
</g>
</svg>
