<?xml version="1.0" encoding="iso-8859-1"?>
<!-- Generator: Adobe Illustrator 19.0.0, SVG Export Plug-In . SVG Version: 6.00 Build 0)  -->
<svg version="1.1" id="Layer_1" xmlns="http://www.w3.org/2000/svg" xmlns:xlink="http://www.w3.org/1999/xlink" x="0px" y="0px"
	 viewBox="0 0 512 512" style="enable-background:new 0 0 512 512;" xml:space="preserve">
<path id="SVGCleanerId_0" style="fill:#6E76E5;" d="M23.273,186.182h23.273h186.182h46.545h186.182h23.273
	c12.853,0,23.273-10.42,23.273-23.273V69.818c0-12.853-10.42-23.273-23.273-23.273H23.273C10.42,46.545,0,56.965,0,69.818v93.091
	C0,175.762,10.42,186.182,23.273,186.182z"/>
<path style="fill:#B87FD9;" d="M23.273,465.455H256h232.727c12.853,0,23.273-10.42,23.273-23.273V302.545V162.909
	c0,12.853-10.42,23.273-23.273,23.273h-23.273v93.091H279.273v-93.091h-46.545v93.091H46.545v-93.091H23.273
	C10.42,186.182,0,175.762,0,162.909v139.636v139.636C0,455.035,10.42,465.455,23.273,465.455z M279.273,325.818h186.182v93.091
	H279.273V325.818z M46.545,325.818h186.182v93.091H46.545V325.818z"/>
<path id="SVGCleanerId_1" style="fill:#424EDE;" d="M23.273,46.545C10.42,46.545,0,56.965,0,69.818v93.091
	c0,12.853,10.42,23.273,23.273,23.273h23.273h186.182H256V46.545H23.273z"/>
<path id="SVGCleanerId_2" style="fill:#933EC5;" d="M232.727,186.182v93.091H46.545v-93.091H23.273
	C10.42,186.182,0,175.762,0,162.909v139.636v139.636c0,12.853,10.42,23.273,23.273,23.273H256V186.182H232.727z M232.727,418.909
	H46.545v-93.091h186.182V418.909z"/>
<path style="fill:#B87FD9;" d="M488.727,46.545H23.273C10.42,46.545,0,56.965,0,69.818v93.091v139.636v139.636
	c0,12.853,10.42,23.273,23.273,23.273H256h232.727c12.853,0,23.273-10.42,23.273-23.273V302.545V162.909V69.818
	C512,56.965,501.58,46.545,488.727,46.545z M232.727,418.909H46.545v-93.091h186.182V418.909z M232.727,279.273H46.545v-93.091
	h186.182V279.273z M465.455,418.909H279.273v-93.091h186.182V418.909z M465.455,279.273H279.273v-93.091h186.182V279.273z"/>
<g>
	<path id="SVGCleanerId_0_1_" style="fill:#6E76E5;" d="M23.273,186.182h23.273h186.182h46.545h186.182h23.273
		c12.853,0,23.273-10.42,23.273-23.273V69.818c0-12.853-10.42-23.273-23.273-23.273H23.273C10.42,46.545,0,56.965,0,69.818v93.091
		C0,175.762,10.42,186.182,23.273,186.182z"/>
</g>
<g>
	<path id="SVGCleanerId_1_1_" style="fill:#424EDE;" d="M23.273,46.545C10.42,46.545,0,56.965,0,69.818v93.091
		c0,12.853,10.42,23.273,23.273,23.273h23.273h186.182H256V46.545H23.273z"/>
</g>
<g>
	<path id="SVGCleanerId_2_1_" style="fill:#933EC5;" d="M232.727,186.182v93.091H46.545v-93.091H23.273
		C10.42,186.182,0,175.762,0,162.909v139.636v139.636c0,12.853,10.42,23.273,23.273,23.273H256V186.182H232.727z M232.727,418.909
		H46.545v-93.091h186.182V418.909z"/>
</g>
<g>
</g>
<g>
</g>
<g>
</g>
<g>
</g>
<g>
</g>
<g>
</g>
<g>
</g>
<g>
</g>
<g>
</g>
<g>
</g>
<g>
</g>
<g>
</g>
<g>
</g>
<g>
</g>
<g>
</g>
</svg>
